<?xml version="1.0" encoding="UTF-8" standalone="no"?>
<svg width="75px" height="105px" viewBox="0 0 75 105" version="1.1" xmlns="http://www.w3.org/2000/svg" xmlns:xlink="http://www.w3.org/1999/xlink">
    <!-- Generator: Sketch 3.8.3 (29802) - http://www.bohemiancoding.com/sketch -->
    <title>logo-loveknitting</title>
    <desc>Created with Sketch.</desc>
    <defs></defs>
    <g id="Page-1" stroke="none" stroke-width="1" fill="none" fill-rule="evenodd">
        <g id="logo-loveknitting" fill="#E8503C">
            <path d="M72.3,48.7 C72,50.8 71.4,53 70.7,55.2 C63.3,65.1 54.1,73.8 43.5,80.7 C42.7,80.3 41.9,79.8 41.1,79.3 C53.5,70.9 64.2,60.1 72.5,47.3 C72.5,47.9 72.4,48.3 72.3,48.7 L72.3,48.7 Z M47.7,83.1 C46.9,82.7 46.1,82.2 45.3,81.8 C54.2,75.8 62.2,68.6 69,60.3 C68,63 66.9,65.6 65.7,68.2 C60.3,73.7 54.3,78.7 47.7,83.1 L47.7,83.1 Z M58,83.1 C57,84.9 56.2,86.3 55.7,87.1 C55.2,86.9 54.5,86.6 53.7,86.2 C55.2,85.2 56.6,84.1 58,83.1 L58,83.1 Z M60.2,79.2 C57.6,81.3 54.8,83.3 52,85.2 C51.2,84.8 50.4,84.4 49.5,83.9 C54.5,80.6 59.2,76.8 63.6,72.7 C62.4,75.1 61.2,77.3 60.2,79.2 L60.2,79.2 Z M31.3,36.5 C39.5,41 47.3,46.7 54.3,53.5 C53.9,54 53.5,54.4 53.1,54.9 C45.1,47.6 36.1,41.5 26.6,36.9 L26.7,36.9 C28.2,36.4 29.7,36.3 31.3,36.5 L31.3,36.5 Z M42.8,38.7 C42.7,39.6 42.6,40.6 42.5,41.5 C42.3,41.3 42,41.2 41.8,41 L42.3,39.8 C42.5,39.5 42.6,39.1 42.8,38.7 L42.8,38.7 Z M45.2,34.7 C46.2,33.3 47.4,32 48.8,30.9 C47.9,35.5 47.2,40.1 46.9,44.8 C46,44.1 45.2,43.4 44.3,42.8 C44.4,40 44.7,37.3 45.2,34.7 L45.2,34.7 Z M54,28.7 C52.4,35.2 51.5,41.7 51.1,48.3 C50.2,47.5 49.4,46.8 48.5,46.1 C48.9,40.6 49.6,35.1 50.8,29.7 C51.2,29.5 51.7,29.3 52.1,29.2 C52.8,29 53.4,28.8 54,28.7 L54,28.7 Z M67.6,32.6 L67,35 C65.7,37.5 64.2,39.9 62.7,42.2 C63.3,38.3 64.1,34.5 65,30.8 C65.9,31.3 66.8,31.9 67.6,32.6 L67.6,32.6 Z M60.6,28.9 C61.6,29.1 62.5,29.5 63.4,29.9 C62.1,35 61.1,40.2 60.5,45.5 C59.5,47 58.4,48.4 57.3,49.8 C57.7,42.7 58.9,35.7 60.6,28.9 L60.6,28.9 Z M55.4,52.1 C55.4,52.1 55.4,52.2 55.4,52.1 C54.5,51.3 53.6,50.5 52.8,49.7 C53.1,42.5 54.2,35.4 55.9,28.4 C56.9,28.3 57.9,28.4 58.9,28.5 C56.9,36.4 55.7,44.2 55.4,52.1 L55.4,52.1 Z M68.9,35.1 C69,34.9 69.1,34.6 69.3,34.4 C70,35.3 70.6,36.2 71.1,37.2 C62.7,52.6 50.6,66 35.6,76 C34.9,75.5 34.1,75 33.4,74.6 C48.1,64.6 60.3,51.2 68.9,35.1 L68.9,35.1 Z M34.6,71.7 L32.5,73.2 C31.1,72.4 29.6,71.6 28.1,70.9 C25.5,68.9 23.1,66.9 21.2,64.8 C25.8,66.8 30.3,69.1 34.6,71.7 L34.6,71.7 Z M38.1,69.1 C37.5,69.6 36.8,70.1 36.2,70.6 C30.5,67.1 24.6,64.2 18.4,61.8 C17.6,60.7 16.9,59.5 16.4,58.2 C23.9,60.9 31.2,64.6 38.1,69.1 L38.1,69.1 Z M41.2,66.5 L39.4,68 C32,63 24,59 15.7,56 C15.5,55 15.3,54 15.3,53 C24.3,56.2 33.1,60.8 41.2,66.5 L41.2,66.5 Z M44.2,63.9 C43.7,64.4 43.1,64.9 42.6,65.3 C34.2,59.3 25,54.5 15.3,51 C15.4,50.1 15.5,49.2 15.7,48.3 C25.7,52.1 35.4,57.2 44.2,63.9 L44.2,63.9 Z M21.7,39.3 C22.5,38.7 23.4,38.1 24.4,37.7 C34.3,42.3 43.6,48.4 52.1,56.1 C51.7,56.6 51.3,57 50.8,57.5 C41.9,49.9 32.1,43.8 21.7,39.3 L21.7,39.3 Z M49.6,58.7 L48.2,60.1 C39.1,52.7 29.1,46.9 18.3,42.7 C18.9,41.9 19.5,41.2 20.1,40.6 C30.7,45 40.6,51 49.6,58.7 L49.6,58.7 Z M17.3,44.2 C27.8,48.2 37.8,53.9 46.9,61.3 C46.4,61.8 45.9,62.3 45.4,62.7 C36.4,55.9 26.6,50.5 16.1,46.6 L17.3,44.2 L17.3,44.2 Z M72.2,39.9 C72.6,41.2 72.8,42.5 72.9,43.8 C64.6,57.5 53.3,69.4 39.6,78.5 C38.8,78 38.1,77.6 37.3,77.1 C51.5,67.5 63.4,54.7 72,39.3 C72,39.5 72.1,39.7 72.2,39.9 L72.2,39.9 Z M51.5,27.1 C48.9,27.9 44.3,30.3 40.8,37.9 C33.8,33.5 28.6,34 26,34.8 C16.4,37.7 11,47.9 13.9,57.5 C14.9,60.7 16.7,63.6 19.2,65.8 C24,70.9 31.5,76.4 41.7,82.2 C49.3,86.5 55.6,89.4 55.6,89.4 L56.4,89.8 L57,89 C57,88.9 60.7,83.1 64.6,75.3 C69.9,64.8 73.2,56 74.3,49.2 C75.2,46 75.1,42.6 74.1,39.3 C71.3,29.7 61.1,24.2 51.5,27.1 L51.5,27.1 Z" id="Shape"></path>
            <path d="M53.2,96.9 C52.8,94.7 51.8,91.3 51.2,89.2 L49.9,85 C48.8,84.7 47.5,84.4 46.2,84.1 L48.2,90.1 C48.9,92.2 50.2,95.5 51.1,97.5 L53.7,103.3 C54.6,105.3 55,105.2 54.5,103 L53.2,96.9 L53.2,96.9 Z M72,95 L68.3,89.8 C67,88 64.8,85.2 63.4,83.5 L61.2,81 C60.5,81.9 59.7,82.7 59.1,83.4 L61.1,85.6 C62.6,87.2 65.1,89.8 66.7,91.3 L71.4,95.6 C73,97 73.3,96.8 72,95 L72,95 Z M36.7,53.2 L9.8,22.7 C11,20.8 10.8,18.3 9.2,16.5 C7.3,14.3 4,14.1 1.8,16 C-0.4,17.9 -0.6,21.3 1.3,23.4 C2.9,25.2 5.3,25.6 7.4,24.7 L28,48.1 C30.3,49.4 33.6,51.3 36.7,53.2 L36.7,53.2 Z" id="Shape"></path>
            <path d="M22.1,10.5 L35.8,52.6 C37.3,53.5 38.7,54.3 40,55.1 L25.1,9.6 C26.9,8.3 27.8,5.9 27,3.7 C26.1,0.9 23.1,-0.6 20.4,0.3 C17.6,1.2 16.1,4.2 17,6.9 C17.8,9.1 19.9,10.6 22.1,10.5" id="Shape"></path>
        </g>
    </g>
</svg>